<?xml version="1.0" standalone="no"?>
<!DOCTYPE svg PUBLIC "-//W3C//DTD SVG 20010904//EN"
 "http://www.w3.org/TR/2001/REC-SVG-20010904/DTD/svg10.dtd">
<svg version="1.0" xmlns="http://www.w3.org/2000/svg"
 width="700.000000pt" height="700.000000pt" viewBox="0 0 700.000000 700.000000"
 preserveAspectRatio="xMidYMid meet">
<metadata>
Created by potrace 1.11, written by Peter Selinger 2001-2013
</metadata>
<g transform="translate(0.000000,700.000000) scale(0.100000,-0.100000)"
fill="#000000" stroke="none">
<path d="M1125 6119 c-64 -9 -111 -34 -164 -87 -126 -127 -106 -332 44 -439
52 -37 130 -51 310 -57 94 -4 193 -9 220 -11 69 -7 293 -36 319 -41 11 -2 50
-9 85 -14 35 -6 103 -20 150 -31 47 -11 97 -23 111 -25 101 -20 429 -125 581
-188 161 -66 195 -81 320 -142 663 -326 1219 -800 1631 -1389 292 -418 503
-860 641 -1345 20 -69 38 -138 41 -155 3 -16 12 -55 20 -85 8 -31 22 -96 30
-145 9 -50 18 -101 21 -115 9 -54 35 -259 40 -330 12 -139 13 -175 16 -280 3
-171 41 -257 142 -317 128 -77 275 -54 372 59 67 79 77 157 61 456 -4 79 -9
151 -11 160 -1 9 -6 49 -9 87 -4 39 -8 80 -10 90 -2 11 -7 43 -10 70 -9 67
-15 100 -26 160 -5 28 -12 68 -16 90 -3 22 -10 58 -16 80 -5 22 -12 47 -13 55
-54 259 -163 596 -287 890 -34 80 -173 367 -212 435 -6 11 -29 52 -50 90 -83
146 -289 458 -358 540 -9 11 -47 58 -84 105 -212 267 -507 557 -794 780 -147
114 -404 290 -505 345 -11 6 -52 30 -91 53 -180 105 -528 267 -749 348 -176
64 -452 148 -575 174 -288 61 -436 87 -614 106 -212 23 -490 34 -561 23z"/>
<path d="M1178 4085 c-1 -1 -23 -5 -48 -8 -69 -9 -118 -34 -170 -87 -67 -69
-97 -172 -76 -266 13 -63 75 -144 136 -181 52 -31 101 -41 246 -48 72 -3 142
-8 155 -10 13 -2 47 -6 74 -10 28 -3 68 -10 90 -15 22 -5 51 -11 65 -14 150
-28 371 -105 545 -191 473 -231 828 -587 1059 -1059 109 -221 162 -381 206
-621 25 -135 29 -176 35 -297 7 -140 13 -183 35 -231 54 -123 196 -193 328
-163 44 10 112 49 144 83 29 31 66 97 74 134 7 31 6 185 -1 263 -18 201 -17
190 -36 301 -28 159 -111 457 -146 525 -7 14 -13 30 -13 36 0 6 -16 47 -36 90
-203 450 -434 762 -802 1084 -122 107 -341 252 -522 347 -263 137 -650 268
-886 297 -61 8 -117 16 -139 21 -11 2 -76 7 -145 10 -69 4 -135 8 -147 10 -12
2 -23 2 -25 0z"/>
<path d="M1320 2024 c-164 -42 -305 -155 -379 -305 -95 -192 -83 -402 32 -581
96 -150 295 -260 472 -262 219 -2 432 125 531 316 150 293 24 657 -277 795
-109 51 -265 66 -379 37z"/>
</g>
</svg>
